<svg width="16" height="16" viewBox="0 0 16 16" fill="none" xmlns="http://www.w3.org/2000/svg">
<g id="globe-01" clip-path="url(#clip0_2147_775)">
<path id="Icon" d="M1.33301 7.99967H14.6663M1.33301 7.99967C1.33301 11.6816 4.31778 14.6663 7.99967 14.6663M1.33301 7.99967C1.33301 4.31778 4.31778 1.33301 7.99967 1.33301M14.6663 7.99967C14.6663 11.6816 11.6816 14.6663 7.99967 14.6663M14.6663 7.99967C14.6663 4.31778 11.6816 1.33301 7.99967 1.33301M7.99967 1.33301C9.66719 3.15858 10.6148 5.5277 10.6663 7.99967C10.6148 10.4717 9.66719 12.8408 7.99967 14.6663M7.99967 1.33301C6.33215 3.15858 5.38451 5.5277 5.33301 7.99967C5.38451 10.4717 6.33215 12.8408 7.99967 14.6663" stroke="#8FA0B2" stroke-width="1.5" stroke-linecap="round" stroke-linejoin="round"/>
</g>
<defs>
<clipPath id="clip0_2147_775">
<rect width="16" height="16" fill="white"/>
</clipPath>
</defs>
</svg>
