<svg xmlns="http://www.w3.org/2000/svg" width="48" height="48" viewBox="0 0 48 48" fill="none">
    <path d="M45 24C45 26.7578 44.4568 29.4885 43.4015 32.0364C42.3461 34.5842 40.7993 36.8992 38.8492 38.8492C36.8992 40.7993 34.5842 42.3461 32.0364 43.4015C29.4885 44.4568 26.7578 45 24 45C21.2422 45 18.5115 44.4568 15.9636 43.4015C13.4158 42.3461 11.1008 40.7993 9.15075 38.8492C7.20072 36.8992 5.65388 34.5842 4.59853 32.0363C3.54318 29.4885 3 26.7578 3 24C3 21.2422 3.54318 18.5115 4.59853 15.9636C5.65388 13.4158 7.20073 11.1008 9.15076 9.15075C11.1008 7.20072 13.4158 5.65387 15.9637 4.59853C18.5115 3.54318 21.2423 3 24 3C26.7578 3 29.4885 3.54318 32.0364 4.59853C34.5842 5.65388 36.8992 7.20073 38.8493 9.15077C40.7993 11.1008 42.3461 13.4158 43.4015 15.9637C44.4568 18.5115 45 21.2423 45 24L45 24Z"
          stroke="#0E1621" stroke-width="4" stroke-linecap="round" stroke-linejoin="round"/>
    <path d="M9.15076 9.15076C11.4941 6.80739 14.3588 5.0519 17.5106 4.02781C20.6625 3.00372 24.0119 2.74012 27.2851 3.25855C30.5583 3.77697 33.6624 5.06271 36.3435 7.01065C39.0246 8.95858 41.2066 11.5134 42.7111 14.4662C44.2157 17.419 45 20.686 45 24C45 27.314 44.2157 30.581 42.7111 33.5338C41.2066 36.4866 39.0246 39.0414 36.3435 40.9894C33.6624 42.9373 30.5583 44.223 27.2851 44.7415"
          stroke="#5DB7F7" stroke-width="4" stroke-linecap="round" stroke-linejoin="round"/>
</svg>