<svg xmlns="http://www.w3.org/2000/svg" width="95" height="28" viewBox="0 0 95 28" fill="none">
    <path d="M10.2422 4.9375L7.28906 22H4.42969L7.39453 4.9375H10.2422ZM15.4336 4.9375L15.0234 7.28125H1.83984L2.25 4.9375H15.4336ZM18.5469 11.875L16.7891 22H14.0352L16.2383 9.32031H18.8516L18.5469 11.875ZM22.6719 9.21484L22.3672 11.8516C22.1875 11.8203 22.0039 11.793 21.8164 11.7695C21.6367 11.7461 21.457 11.7344 21.2773 11.7344C20.8008 11.7266 20.3711 11.793 19.9883 11.9336C19.6055 12.0742 19.2695 12.2773 18.9805 12.543C18.6914 12.8008 18.4492 13.1133 18.2539 13.4805C18.0586 13.8398 17.9062 14.2422 17.7969 14.6875L17.1406 14.7344C17.2188 14.1172 17.3516 13.4766 17.5391 12.8125C17.7344 12.1484 18.0039 11.5312 18.3477 10.9609C18.6914 10.3828 19.1289 9.91797 19.6602 9.56641C20.1914 9.20703 20.8359 9.03516 21.5938 9.05078C21.7734 9.05078 21.9531 9.06641 22.1328 9.09766C22.3125 9.12891 22.4922 9.16797 22.6719 9.21484ZM30.4961 19.2109L33.1328 4H35.9102L32.7812 22H30.2969L30.4961 19.2109ZM23.0898 15.8945L23.1133 15.6484C23.2148 14.8672 23.3984 14.0859 23.6641 13.3047C23.9375 12.5234 24.3047 11.8086 24.7656 11.1602C25.2344 10.5117 25.8047 9.99609 26.4766 9.61328C27.1562 9.23047 27.9531 9.05078 28.8672 9.07422C29.6641 9.09766 30.3281 9.30469 30.8594 9.69531C31.3906 10.0859 31.8047 10.5898 32.1016 11.207C32.4062 11.8242 32.6133 12.4922 32.7227 13.2109C32.832 13.9219 32.8672 14.6172 32.8281 15.2969L32.7344 16.0938C32.6094 16.8125 32.3984 17.5391 32.1016 18.2734C31.8047 19.0078 31.418 19.6797 30.9414 20.2891C30.4727 20.8984 29.9102 21.3828 29.2539 21.7422C28.6055 22.1016 27.8633 22.2695 27.0273 22.2461C26.1914 22.2148 25.5 22.0039 24.9531 21.6133C24.4062 21.2148 23.9844 20.7031 23.6875 20.0781C23.3906 19.4453 23.1992 18.7656 23.1133 18.0391C23.0273 17.3047 23.0195 16.5898 23.0898 15.8945ZM25.9023 15.625L25.8789 15.8711C25.832 16.2773 25.8125 16.7109 25.8203 17.1719C25.8281 17.6328 25.8906 18.0742 26.0078 18.4961C26.1328 18.9102 26.3398 19.2539 26.6289 19.5273C26.9258 19.8008 27.3398 19.9492 27.8711 19.9727C28.4883 19.9961 29.0352 19.8555 29.5117 19.5508C29.9961 19.2461 30.3984 18.8477 30.7188 18.3555C31.0391 17.8633 31.2656 17.3398 31.3984 16.7852L31.7266 14.6406C31.75 14.25 31.7227 13.8633 31.6445 13.4805C31.5742 13.0977 31.4453 12.75 31.2578 12.4375C31.0703 12.125 30.8203 11.8711 30.5078 11.6758C30.2031 11.4727 29.832 11.3672 29.3945 11.3594C28.8164 11.3359 28.3164 11.4531 27.8945 11.7109C27.4805 11.9688 27.1367 12.3125 26.8633 12.7422C26.5977 13.1719 26.3867 13.6406 26.2305 14.1484C26.0742 14.6562 25.9648 15.1484 25.9023 15.625Z"
          fill="#E9E9E9"/>
    <path d="M39.9297 4.9375H42.5547L47.4883 18.0977L52.4102 4.9375H55.0352L48.5195 22H46.4336L39.9297 4.9375ZM38.7344 4.9375H41.2305L41.6641 16.3281V22H38.7344V4.9375ZM53.7344 4.9375H56.2422V22H53.3008V16.3281L53.7344 4.9375ZM62.5291 11.7344V22H59.7048V9.32031H62.4002L62.5291 11.7344ZM66.408 9.23828L66.3845 11.8633C66.2127 11.832 66.0252 11.8086 65.822 11.793C65.6267 11.7773 65.4314 11.7695 65.2361 11.7695C64.7517 11.7695 64.3259 11.8398 63.9587 11.9805C63.5916 12.1133 63.283 12.3086 63.033 12.5664C62.7908 12.8164 62.6033 13.1211 62.4705 13.4805C62.3377 13.8398 62.2595 14.2422 62.2361 14.6875L61.5916 14.7344C61.5916 13.9375 61.6697 13.1992 61.8259 12.5195C61.9822 11.8398 62.2166 11.2422 62.5291 10.7266C62.8494 10.2109 63.2478 9.80859 63.7244 9.51953C64.2087 9.23047 64.7673 9.08594 65.4002 9.08594C65.572 9.08594 65.7556 9.10156 65.9509 9.13281C66.1541 9.16406 66.3064 9.19922 66.408 9.23828ZM71.1952 4V22H68.3592V4H71.1952ZM79.0702 9.32031L73.5506 15.4375L70.5272 18.5312L69.7889 16.1406L72.0741 13.3164L75.66 9.32031H79.0702ZM76.2694 22L72.1561 16.0469L73.9373 14.0664L79.5389 22H76.2694ZM86.8456 9.32031V11.3828H79.6972V9.32031H86.8456ZM81.7597 6.21484H84.5839V18.4961C84.5839 18.8867 84.6386 19.1875 84.748 19.3984C84.8652 19.6016 85.0253 19.7383 85.2284 19.8086C85.4316 19.8789 85.6698 19.9141 85.9433 19.9141C86.1386 19.9141 86.3261 19.9023 86.5058 19.8789C86.6855 19.8555 86.83 19.832 86.9394 19.8086L86.9511 21.9648C86.7167 22.0352 86.4433 22.0977 86.1308 22.1523C85.8261 22.207 85.4745 22.2344 85.0761 22.2344C84.4277 22.2344 83.8534 22.1211 83.3534 21.8945C82.8534 21.6602 82.4628 21.2812 82.1816 20.7578C81.9003 20.2344 81.7597 19.5391 81.7597 18.6719V6.21484Z"
          fill="#E9E9E9"/>
    <path d="M89.3125 20.5938C89.3125 20.1562 89.4609 19.7891 89.7578 19.4922C90.0547 19.1875 90.457 19.0352 90.9648 19.0352C91.4805 19.0352 91.8828 19.1875 92.1719 19.4922C92.4688 19.7891 92.6172 20.1562 92.6172 20.5938C92.6172 21.0312 92.4688 21.3984 92.1719 21.6953C91.8828 21.9922 91.4805 22.1406 90.9648 22.1406C90.457 22.1406 90.0547 21.9922 89.7578 21.6953C89.4609 21.3984 89.3125 21.0312 89.3125 20.5938Z"
          fill="#5DB7F7"/>
</svg>