<svg xmlns="http://www.w3.org/2000/svg" width="20" height="20" viewBox="0 0 20 20" fill="none">
    <path fill-rule="evenodd" clip-rule="evenodd"
          d="M9.99967 3.3335C10.4599 3.3335 10.833 3.70659 10.833 4.16683V9.16683H15.833C16.2932 9.16683 16.6663 9.53993 16.6663 10.0002C16.6663 10.4604 16.2932 10.8335 15.833 10.8335H10.833V15.8335C10.833 16.2937 10.4599 16.6668 9.99967 16.6668C9.53944 16.6668 9.16634 16.2937 9.16634 15.8335V10.8335H4.16634C3.7061 10.8335 3.33301 10.4604 3.33301 10.0002C3.33301 9.53993 3.7061 9.16683 4.16634 9.16683H9.16634V4.16683C9.16634 3.70659 9.53944 3.3335 9.99967 3.3335Z"
          fill="#E9E9E9"/>
</svg>