<svg xmlns="http://www.w3.org/2000/svg" width="16" height="16" viewBox="0 0 16 16" fill="none">
    <path d="M6.26344 12.9141L6.65307 13.7904C6.7689 14.0512 6.95792 14.2729 7.19722 14.4284C7.43652 14.5839 7.71581 14.6667 8.00122 14.6667C8.28663 14.6667 8.56592 14.5839 8.80522 14.4284C9.04452 14.2729 9.23354 14.0512 9.34937 13.7904L9.739 12.9141C9.8777 12.6031 10.111 12.3439 10.4057 12.1733C10.7022 12.0023 11.0452 11.9294 11.3857 11.9652L12.339 12.0667C12.6228 12.0967 12.9092 12.0437 13.1635 11.9142C13.4177 11.7847 13.629 11.5842 13.7716 11.337C13.9144 11.09 13.9824 10.8069 13.9674 10.5219C13.9524 10.237 13.8551 9.96254 13.6871 9.73186L13.1227 8.9563C12.9217 8.67809 12.8143 8.34321 12.816 8C12.816 7.65773 12.9244 7.32424 13.1257 7.04741L13.6901 6.27185C13.858 6.04117 13.9554 5.76672 13.9704 5.48178C13.9854 5.19685 13.9173 4.9137 13.7746 4.66667C13.632 4.41949 13.4207 4.219 13.1664 4.08949C12.9121 3.95998 12.6257 3.90702 12.342 3.93704L11.3886 4.03852C11.0482 4.07428 10.7052 4.00142 10.4086 3.83037C10.1134 3.65884 9.88001 3.39824 9.74196 3.08593L9.34937 2.20963C9.23354 1.94878 9.04452 1.72715 8.80522 1.5716C8.56592 1.41606 8.28663 1.33329 8.00122 1.33334C7.71581 1.33329 7.43652 1.41606 7.19722 1.5716C6.95792 1.72715 6.7689 1.94878 6.65307 2.20963L6.26344 3.08593C6.1254 3.39824 5.89202 3.65884 5.59678 3.83037C5.30025 4.00142 4.95722 4.07428 4.61678 4.03852L3.66048 3.93704C3.3767 3.90702 3.09031 3.95998 2.83602 4.08949C2.58174 4.219 2.37049 4.41949 2.22789 4.66667C2.0851 4.9137 2.01708 5.19685 2.03207 5.48178C2.04705 5.76672 2.14441 6.04117 2.31233 6.27185L2.87678 7.04741C3.07807 7.32424 3.18647 7.65773 3.18641 8C3.18647 8.34228 3.07807 8.67577 2.87678 8.9526L2.31233 9.72815C2.14441 9.95883 2.04705 10.2333 2.03207 10.5182C2.01708 10.8032 2.0851 11.0863 2.22789 11.3333C2.37063 11.5804 2.58191 11.7808 2.83615 11.9103C3.0904 12.0398 3.37672 12.0928 3.66048 12.063L4.61381 11.9615C4.95426 11.9257 5.29729 11.9986 5.59381 12.1696C5.89017 12.3407 6.12462 12.6013 6.26344 12.9141Z"
          stroke="#8794A1" stroke-width="1.5" stroke-linecap="round" stroke-linejoin="round"/>
    <path d="M8.00003 10C9.1046 10 10 9.10457 10 8C10 6.89543 9.1046 6 8.00003 6C6.89546 6 6.00003 6.89543 6.00003 8C6.00003 9.10457 6.89546 10 8.00003 10Z"
          stroke="#8794A1" stroke-width="1.5" stroke-linecap="round" stroke-linejoin="round"/>
</svg>