<svg xmlns="http://www.w3.org/2000/svg" width="20" height="20" viewBox="0 0 20 20" fill="none">
    <path d="M1.66699 1.66699H2.75546C2.96048 1.66699 3.06299 1.66699 3.14548 1.70469C3.21817 1.73792 3.27978 1.79135 3.32295 1.85861C3.37194 1.93495 3.38644 2.03643 3.41543 2.23938L3.80985 5.00033M3.80985 5.00033L4.68643 11.4432C4.79766 12.2608 4.85328 12.6696 5.04874 12.9773C5.22097 13.2484 5.46789 13.464 5.75979 13.5981C6.09104 13.7503 6.50361 13.7503 7.32875 13.7503H14.4603C15.2458 13.7503 15.6385 13.7503 15.9595 13.609C16.2424 13.4844 16.4852 13.2835 16.6606 13.0288C16.8594 12.74 16.9329 12.3542 17.0799 11.5826L18.1829 5.79173C18.2346 5.52017 18.2605 5.38438 18.223 5.27824C18.1901 5.18513 18.1253 5.10673 18.0399 5.05701C17.9427 5.00033 17.8045 5.00033 17.528 5.00033H3.80985ZM8.33366 17.5003C8.33366 17.9606 7.96056 18.3337 7.50033 18.3337C7.04009 18.3337 6.66699 17.9606 6.66699 17.5003C6.66699 17.0401 7.04009 16.667 7.50033 16.667C7.96056 16.667 8.33366 17.0401 8.33366 17.5003ZM15.0003 17.5003C15.0003 17.9606 14.6272 18.3337 14.167 18.3337C13.7068 18.3337 13.3337 17.9606 13.3337 17.5003C13.3337 17.0401 13.7068 16.667 14.167 16.667C14.6272 16.667 15.0003 17.0401 15.0003 17.5003Z"
          stroke="currentColor" stroke-width="1.5" stroke-linecap="round" stroke-linejoin="round"/>
</svg>