<svg width="20" height="20" viewBox="0 0 20 20" fill="none" xmlns="http://www.w3.org/2000/svg">
<path fill-rule="evenodd" clip-rule="evenodd" d="M9.0318 2.5H4.30089C3.86161 2.49999 3.48262 2.49997 3.17049 2.52548C2.84103 2.55239 2.51335 2.61182 2.19803 2.77249C1.72763 3.01217 1.34518 3.39462 1.10549 3.86503C0.944832 4.18034 0.885402 4.50802 0.858485 4.83748C0.832982 5.14961 0.832994 5.52857 0.833008 5.96785V12.5C0.833008 13.6172 1.56582 14.5632 2.57697 14.8836C2.90497 16.38 4.23819 17.5 5.83301 17.5C7.38621 17.5 8.69129 16.4377 9.06133 15H11.65L11.6663 15.0002H12.1126C12.3148 16.4135 13.5304 17.5 14.9997 17.5C16.4865 17.5 17.7134 16.3875 17.8936 14.9496C17.9724 14.9321 18.0543 14.9077 18.1375 14.8733C18.5459 14.7041 18.8703 14.3797 19.0395 13.9713C19.1203 13.7763 19.1457 13.5882 19.1565 13.4295C19.1664 13.2844 19.1664 13.1139 19.1663 12.9389L19.1663 10.5524L19.1664 10.5099C19.1668 10.3517 19.1674 10.1524 19.1203 9.95626C19.0795 9.7862 19.0121 9.62363 18.9207 9.47451C18.8154 9.30254 18.6741 9.16201 18.5619 9.0504L18.5317 9.02038L15.1461 5.63476L15.1161 5.60463C15.0045 5.49243 14.864 5.35114 14.692 5.24576C14.5429 5.15438 14.3803 5.08704 14.2102 5.04621C14.0141 4.99913 13.8148 4.99966 13.6566 5.00008L13.6141 5.00016H12.485C12.482 4.94407 12.4785 4.88984 12.4742 4.83748C12.4473 4.50802 12.3879 4.18034 12.2272 3.86503C11.9875 3.39462 11.6051 3.01217 11.1347 2.77249C10.8193 2.61182 10.4917 2.55239 10.1622 2.52548C9.85006 2.49997 9.47107 2.49999 9.0318 2.5ZM17.4994 13.0798C17.4996 13.0328 17.4997 12.9791 17.4997 12.9168V10.5524C17.4997 10.4433 17.4995 10.3888 17.4977 10.3492L17.4975 10.3462L17.4955 10.344C17.4688 10.3148 17.4304 10.2761 17.3532 10.1989L13.9676 6.81327C13.8904 6.73608 13.8517 6.69769 13.8225 6.67099L13.8203 6.66898L13.8173 6.66883C13.7777 6.66703 13.7232 6.66683 13.6141 6.66683H12.4997V13.0802C13.0101 12.2332 13.9387 11.6667 14.9997 11.6667C16.0605 11.6667 16.989 12.233 17.4994 13.0798ZM5.83301 12.5C4.91253 12.5 4.16634 13.2462 4.16634 14.1667C4.16634 15.0871 4.91253 15.8333 5.83301 15.8333C6.75348 15.8333 7.49968 15.0871 7.49968 14.1667C7.49968 13.2462 6.75348 12.5 5.83301 12.5ZM13.7497 14.5833C13.7497 13.893 14.3093 13.3333 14.9997 13.3333C15.69 13.3333 16.2497 13.893 16.2497 14.5833C16.2497 15.2737 15.69 15.8333 14.9997 15.8333C14.3093 15.8333 13.7497 15.2737 13.7497 14.5833Z" fill="#8FA0B2"/>
</svg>
